<?xml version="1.0" encoding="utf-8"?>
<!-- Generator: Adobe Illustrator 17.0.0, SVG Export Plug-In . SVG Version: 6.00 Build 0)  -->
<!DOCTYPE svg PUBLIC "-//W3C//DTD SVG 1.1//EN" "http://www.w3.org/Graphics/SVG/1.1/DTD/svg11.dtd">
<svg version="1.1" id="Layer_1" xmlns="http://www.w3.org/2000/svg" xmlns:xlink="http://www.w3.org/1999/xlink" x="0px" y="0px"
	 width="135.2px" height="102.9px" viewBox="0 0 135.2 102.9" enable-background="new 0 0 135.2 102.9" xml:space="preserve">
<g>
	<path fill="#FFFFFF" d="M103.8,1.6c-1.1-1.1-2.5-1.6-3.9-1.6H35.3c-1.5,0-2.9,0.6-3.9,1.6L1.6,31.4c-2.2,2.2-2.2,5.7,0,7.9l62,62
		c1.1,1.1,2.5,1.6,3.9,1.6c1.5,0,2.9-0.6,3.9-1.6l62-62c1.1-1.1,1.6-2.5,1.6-3.9c0-1.5-0.6-2.9-1.6-3.9L103.8,1.6z"/>
</g>
<g>
	<path fill="#48B2E8" d="M67,30.3c0.2,0.1,0.4,0.2,0.6,0.2s0.4,0,0.6-0.2L89.4,9.1c0.5-0.6,0.1-1.5-0.6-1.5H67.6H46.4
		c-0.7,0-1.1,0.9-0.6,1.4L67,30.3z"/>
	<path fill="#48B2E8" d="M30.7,13.2L9.8,34.1l-0.2,0.2c-0.2,0.3-0.3,0.6-0.3,1c0,0.4,0.2,0.7,0.4,1l0.1,0.1l20.9,21
		c0.5,0.5,1.4,0.2,1.4-0.6V13.9C32.1,13.1,31.1,12.7,30.7,13.2z"/>
	<path fill="#48B2E8" d="M125.8,34.3l-0.2-0.2l-20.9-20.9c-0.5-0.5-1.4-0.1-1.4,0.7v42.9c0,0.8,0.9,1.1,1.4,0.6l20.9-21l0.1-0.1
		c0.2-0.3,0.4-0.6,0.4-1C126.1,34.9,126,34.6,125.8,34.3z"/>
	<path fill="#48B2E8" d="M89.4,26.4L67.6,48.2L45.7,26.4c-0.5-0.5-1.4-0.1-1.4,0.6v44c0,0.1,0.1,0.2,0.1,0.3s0,0.1,0,0.1
		c0.1,0,0.1,0.1,0.2,0.2l21.9,22c0.3,0.2,0.7,0.4,1.1,0.4s0.7-0.2,1-0.4l0.1-0.1l21.9-21.9c0.1-0.1,0.1-0.2,0.2-0.3l-0.026-0.026
		c0.019-0.058,0.026-0.116,0.026-0.174V27C90.8,26.2,89.9,25.8,89.4,26.4z"/>
</g>
</svg>
